<?xml version="1.0" standalone="no"?>
<!DOCTYPE svg PUBLIC "-//W3C//DTD SVG 20010904//EN"
 "http://www.w3.org/TR/2001/REC-SVG-20010904/DTD/svg10.dtd">
<svg version="1.0" xmlns="http://www.w3.org/2000/svg"
 width="185.000000pt" height="185.000000pt" viewBox="0 0 185.000000 185.000000"
 preserveAspectRatio="xMidYMid meet">
<metadata>
Created by potrace 1.11, written by Peter Selinger 2001-2013
</metadata>
<g transform="translate(0.000000,185.000000) scale(0.100000,-0.100000)"
fill="#000000" stroke="none">
<path d="M1564 1200 l-7 -60 -52 0 c-49 0 -65 -9 -65 -36 0 -2 27 -4 60 -4
l60 0 0 -60 0 -60 30 0 30 0 0 60 0 60 60 0 c53 0 60 2 60 20 0 18 -7 20 -58
20 l-58 0 4 60 4 60 -30 0 c-30 0 -31 -1 -38 -60z"/>
<path d="M158 1143 c-30 -8 -20 -32 15 -35 l32 -3 0 -253 -1 -254 40 7 c22 3
41 7 42 8 1 1 3 121 5 267 l4 265 -60 2 c-33 0 -68 -1 -77 -4z"/>
<path d="M383 1143 c-15 -3 -23 -12 -23 -24 0 -18 4 -20 29 -14 47 10 52 -11
41 -168 -10 -151 -25 -245 -46 -296 -18 -43 -19 -41 20 -41 52 0 63 19 71 112
3 46 9 124 13 173 l8 90 63 -187 c50 -151 66 -188 81 -188 13 0 36 43 96 183
l79 182 5 -166 c4 -120 9 -171 19 -182 17 -21 79 -22 127 -2 46 19 40 40 -11
40 -34 0 -39 3 -47 30 -9 29 -3 293 9 408 l6 58 -44 -3 -43 -3 -83 -190 c-46
-104 -85 -191 -87 -192 -2 -2 -27 65 -56 149 -30 84 -62 172 -71 196 l-18 42
-58 -1 c-32 -1 -68 -4 -80 -6z"/>
<path d="M1013 1143 c-25 -3 -33 -9 -33 -24 0 -15 6 -19 33 -17 l32 3 -1 -250
-1 -250 150 0 c170 0 170 0 181 88 5 45 4 47 -18 47 -19 0 -26 -7 -31 -29 -10
-45 -27 -53 -121 -55 l-86 -1 6 29 c3 16 6 62 6 102 l0 73 88 3 c81 3 87 5 90
25 3 21 2 22 -85 16 l-88 -6 3 107 3 106 62 0 c34 0 68 -4 75 -9 8 -4 16 -27
19 -50 4 -30 10 -41 23 -41 21 0 30 27 30 93 l0 47 -152 -2 c-84 0 -168 -3
-185 -5z"/>
</g>
</svg>
